<svg width="390" height="350" viewBox="0 0 390 350" fill="none" xmlns="http://www.w3.org/2000/svg">
<path fill-rule="evenodd" clip-rule="evenodd" d="M165.273 -32.4188C191.525 -30.026 217.263 -30.5762 242.995 -24.8488C292.257 -13.8843 365.838 -29.1549 386.572 16.8372C404.975 57.6576 317.778 81.4476 310.85 125.664C303.224 174.329 390.746 243.612 347.374 266.987C291.278 297.22 230.597 181.056 170.217 201.458C120.499 218.258 159.66 321.414 113.34 346.068C78.8569 364.422 44.3509 310.352 15.8239 283.636C-8.16808 261.167 -33.2462 235.593 -39.1363 203.272C-44.876 171.777 0.305408 139.258 -15.5573 111.44C-40.8251 67.1272 -137.753 76.9067 -140.233 25.9777C-142.333 -17.1628 -59.0232 -0.841581 -22.1179 -23.2867C0.403966 -36.9841 6.26915 -76.3775 32.5011 -79.0759C62.2601 -82.1371 82.2533 -46.8476 110.484 -36.9271C127.994 -30.7741 146.792 -34.1034 165.273 -32.4188Z" fill="#ffffff"/>
</svg>
