<svg width="1413" height="1311" viewBox="0 0 1413 1311" fill="none" xmlns="http://www.w3.org/2000/svg">
<path fill-rule="evenodd" clip-rule="evenodd" d="M13.9549 93.6126C65.6584 -18.4718 246.837 -2.68972 369.71 9.07293C479.435 19.5769 565.927 100.724 661.519 155.604C723.911 191.423 772.522 244.423 836.605 277.12C902.77 310.879 1000.96 290.177 1043.97 350.74C1087.05 411.416 1002.49 510.406 1045.42 571.188C1134.63 697.488 1473.68 720.97 1402.43 858.208C1322.96 1011.27 1053.83 808.922 891.605 867.467C823.273 892.128 856.727 1008.44 817.22 1069.41C758.153 1160.55 712.982 1311.46 604.372 1310.7C498.423 1309.95 492.241 1129.67 407.166 1066.52C337.582 1014.87 218.248 1051.56 164.108 983.895C110.598 917.019 143.089 816.965 139.042 731.412C135.414 654.728 156.18 579.336 141.405 504C113.487 361.653 -46.8065 225.333 13.9549 93.6126Z" fill="#FCEA8A"/>
</svg>
