<svg width="1026" height="893" viewBox="0 0 1026 893" fill="none" xmlns="http://www.w3.org/2000/svg">
<path fill-rule="evenodd" clip-rule="evenodd" d="M546.321 183.206C622.242 148.159 641.642 32.4316 720.994 6.06788C782.365 -14.3221 857.544 19.5999 904.337 64.259C951.302 109.082 964.608 180.742 971.658 245.299C978.132 304.591 934.093 361.475 943.227 420.416C953.107 484.167 1022.18 529.26 1025.65 593.679C1029.06 657.045 1007.53 727.1 962.136 771.413C915.673 816.768 844.029 827.247 779.468 833.985C722.749 839.905 668.002 798.023 611.85 807.974C556.392 817.801 517.301 911.828 465.54 889.616C405.802 863.981 452.281 725.008 388.563 712.156C281.003 690.462 183.579 839.89 77.621 811.374C8.6527 792.812 -15.0831 677.25 9.33425 610.094C41.2095 522.426 193.149 516.785 217.475 426.727C236.426 356.571 96.4764 311.049 109.428 239.541C120.281 179.618 209.211 168.92 267.402 151.075C318.006 135.556 372.039 136.825 424.62 142.882C467.437 147.814 507.185 201.272 546.321 183.206Z" fill="#ffffff"/>
</svg>
